HIERARCHY
ROOT SpineBase
{
  OFFSET 0.000000 0.000000 0.000000
  CHANNELS 6 Xposition Yposition Zposition Zrotation Xrotation Yrotation
  JOINT SpineMid
  {
    OFFSET 0.000000 30.934749 0.000000
    CHANNELS 3 Zrotation Xrotation Yrotation
    JOINT SpineShoulder
    {
      OFFSET -0.178329 23.016441 -0.884556
      CHANNELS 3 Zrotation Xrotation Yrotation
      JOINT Neck
      {
        OFFSET -0.109976 7.622901 -0.663900
        CHANNELS 3 Zrotation Xrotation Yrotation
        JOINT Head
        {
          OFFSET -2.749592 11.251586 1.123631
          CHANNELS 3 Zrotation Xrotation Yrotation
          End Site
          {
            OFFSET 0 0 0
          }
        }
      }
      JOINT ShoulderLeft
      {
        OFFSET -15.779010 -3.633594 7.487934
        CHANNELS 3 Zrotation Xrotation Yrotation
        JOINT ElbowLeft
        {
          OFFSET -2.528844 -30.968256 3.004185
          CHANNELS 3 Zrotation Xrotation Yrotation
          JOINT WristLeft
          {
            OFFSET -1.535398 -22.798484 -4.897430
            CHANNELS 3 Zrotation Xrotation Yrotation
            JOINT HandLeft
            {
              OFFSET 0.259026 -3.295295 -1.336265
              CHANNELS 3 Zrotation Xrotation Yrotation
              JOINT HandTipLeft
              {
                OFFSET -0.772383 -5.439637 -2.338632
                CHANNELS 3 Zrotation Xrotation Yrotation
                End Site
                {
                  OFFSET 0 0 0
                }
              }
              JOINT ThumbLeft
              {
                OFFSET -3.876713 -0.626891 -0.763446
                CHANNELS 3 Zrotation Xrotation Yrotation
                End Site
                {
                  OFFSET 0 0 0
                }
              }
            }
          }
        }
      }
      JOINT ShoulderRight
      {
        OFFSET 13.666597 -2.058934 -9.176743
        CHANNELS 3 Zrotation Xrotation Yrotation
        JOINT ElbowRight
        {
          OFFSET 7.479921 -27.492892 -2.453276
          CHANNELS 3 Zrotation Xrotation Yrotation
          JOINT WristRight
          {
            OFFSET -0.120437 -22.206094 -7.815342
            CHANNELS 3 Zrotation Xrotation Yrotation
            JOINT HandRight
            {
              OFFSET -2.138609 -6.931865 -1.127705
              CHANNELS 3 Zrotation Xrotation Yrotation
              JOINT HandTipRight
              {
                OFFSET -0.641796 -6.031079 -1.647697
                CHANNELS 3 Zrotation Xrotation Yrotation
                End Site
                {
                  OFFSET 0 0 0
                }
              }
              JOINT ThumbRight
              {
                OFFSET -2.187722 0.516712 -0.569167
                CHANNELS 3 Zrotation Xrotation Yrotation
                End Site
                {
                  OFFSET 0 0 0
                }
              }
            }
          }
        }
      }
    }
  }
  JOINT HipLeft
  {
    OFFSET -5.615668 0.314387 -0.865359
    CHANNELS 3 Zrotation Xrotation Yrotation
    JOINT KneeLeft
    {
      OFFSET 0.618977 -34.515035 2.323078
      CHANNELS 3 Zrotation Xrotation Yrotation
      JOINT AnkleLeft
      {
        OFFSET 4.241290 -35.594218 5.404116
        CHANNELS 3 Zrotation Xrotation Yrotation
        JOINT FootLeft
        {
          OFFSET -5.625262 -3.204871 -13.967056
          CHANNELS 3 Zrotation Xrotation Yrotation
          End Site
          {
            OFFSET 0 0 0
          }
        }
      }
    }
  }
  JOINT HipRight
  {
    OFFSET 4.652831 1.473210 -7.073572
    CHANNELS 3 Zrotation Xrotation Yrotation
    JOINT KneeRight
    {
      OFFSET 9.740062 -35.342182 -2.974503
      CHANNELS 3 Zrotation Xrotation Yrotation
      JOINT AnkleRight
      {
        OFFSET 5.643575 -35.726479 3.460633
        CHANNELS 3 Zrotation Xrotation Yrotation
        JOINT FootRight
        {
          OFFSET -1.054299 -8.468468 -5.988276
          CHANNELS 3 Zrotation Xrotation Yrotation
          End Site
          {
            OFFSET 0 0 0
          }
        }
      }
    }
  }
}
MOTION
Frames: 13
Frame Time: 0.033333
46.757001 79.283306 391.950730 -0.000000 0.000000 31.156661 -0.000000 0.000000 -31.156661 -0.000000 0.000000 0.000000 -0.000000 0.000000 0.000000 0.000000 0.000000 0.000000 -0.000000 0.000000 0.000000 -0.000000 0.000000 0.000000 -0.000000 0.000000 0.000000 -0.000000 0.000000 0.000000 0.000000 0.000000 0.000000 0.000000 0.000000 0.000000 -0.000000 0.000000 0.000000 -0.000000 0.000000 0.000000 -0.000000 0.000000 0.000000 -0.000000 0.000000 0.000000 0.000000 0.000000 0.000000 0.000000 0.000000 0.000000 -0.000000 0.000000 -31.156661 -0.000000 0.000000 0.000000 -0.000000 0.000000 0.000000 0.000000 0.000000 0.000000 -0.000000 0.000000 -31.156661 -0.000000 0.000000 0.000000 -0.000000 0.000000 0.000000 0.000000 0.000000 0.000000
46.799106 79.280776 391.977270 0.103730 -0.046216 31.458942 -0.064364 0.093559 -31.458848 -0.000000 0.000000 0.000000 -0.000000 0.000000 0.000000 0.000000 0.000000 0.000000 -0.000000 0.000000 0.000000 -0.000000 0.000000 0.000000 2.195436 0.860358 -0.835413 3.712703 1.865124 -2.173223 0.000000 0.000000 0.000000 0.000000 0.000000 0.000000 -0.000000 0.000000 0.000000 -0.000000 0.000000 0.000000 0.900610 1.156948 -0.512961 -0.298480 -2.773462 0.529206 0.000000 0.000000 0.000000 0.000000 0.000000 0.000000 -0.064364 0.093559 -31.458848 -0.000000 0.000000 0.000000 0.960800 -2.617704 0.485565 0.000000 0.000000 0.000000 -0.064364 0.093559 -31.458848 -0.000000 0.000000 0.000000 -1.495536 3.699180 0.629783 0.000000 0.000000 0.000000
46.838648 79.279949 391.999311 0.197153 -0.084559 31.746435 -0.123165 0.175641 -31.746101 -0.000000 0.000000 0.000000 -0.000000 0.000000 0.000000 0.000000 0.000000 0.000000 -0.000000 0.000000 0.000000 -0.265121 -1.005614 0.122563 3.839320 2.480565 -1.555294 6.624302 3.085205 -3.893402 0.000000 0.000000 0.000000 0.000000 0.000000 0.000000 -0.000000 0.000000 0.000000 -0.000000 0.000000 0.000000 1.658091 2.035639 -0.928764 -0.522946 -4.843530 0.945624 0.000000 0.000000 0.000000 0.000000 0.000000 0.000000 -0.123165 0.175641 -31.746101 -0.000000 0.000000 0.000000 1.948688 -5.180914 0.898702 0.000000 0.000000 0.000000 -0.123165 0.175641 -31.746101 -0.000000 0.000000 0.000000 -2.863497 6.903977 1.278891 0.000000 0.000000 0.000000
46.875627 79.280827 392.016850 0.280242 -0.115019 32.018781 -0.176630 0.246104 -32.018121 -0.000000 0.000000 0.000000 -0.000000 0.000000 0.000000 0.000000 0.000000 0.000000 -0.000000 0.000000 0.000000 -0.336284 -1.463566 0.166940 4.623090 3.391812 -1.920754 8.786407 3.812127 -5.146665 0.000000 0.000000 0.000000 0.000000 0.000000 0.000000 -0.000000 0.000000 0.000000 -0.000000 0.000000 0.000000 2.257647 2.624958 -1.231903 -0.687021 -6.200088 1.231809 0.000000 0.000000 0.000000 0.000000 0.000000 0.000000 -0.176630 0.246104 -32.018121 0.701468 -0.604555 0.038107 2.218988 -7.004110 1.143215 0.000000 0.000000 0.000000 -0.176630 0.246104 -32.018121 -0.000000 0.000000 0.000000 -4.103713 9.638792 1.922974 0.000000 0.000000 0.000000
46.910042 79.283409 392.029890 0.352982 -0.137593 32.275660 -0.224972 0.304821 -32.274638 -0.000000 0.000000 0.000000 0.573081 0.709250 0.112340 0.000000 0.000000 0.000000 0.775743 -0.295374 0.101405 -1.145013 -1.594004 0.105227 4.795847 4.152750 -2.035321 10.274995 4.156806 -5.958232 0.000000 0.000000 0.000000 0.000000 0.000000 0.000000 -0.000000 0.000000 0.000000 -0.000000 0.000000 0.000000 2.686582 2.914673 -1.409222 -0.797719 -6.839431 1.372996 0.000000 0.000000 0.000000 0.000000 0.000000 0.000000 -0.224972 0.304821 -32.274638 0.868256 -0.742223 0.048916 2.974380 -9.070249 1.278752 0.000000 0.000000 0.000000 -0.224972 0.304821 -32.274638 -0.000000 0.000000 0.000000 -5.217144 11.936399 2.543198 0.000000 0.000000 0.000000
46.941895 79.287696 392.038429 0.415361 -0.152282 32.516788 -0.268393 0.351682 -32.515412 -0.000000 0.000000 0.000000 0.743368 0.859828 0.130005 0.000000 0.000000 0.000000 1.001500 -0.494746 0.141923 -1.361740 -1.790832 0.094260 4.406714 4.787194 -1.903457 11.126796 4.177640 -6.346375 0.000000 0.000000 0.000000 0.000000 0.000000 0.000000 -0.000000 0.000000 0.000000 -0.000000 0.000000 0.000000 2.934496 2.894503 -1.450276 -0.854199 -6.761744 1.358353 0.000000 0.000000 0.000000 0.000000 0.000000 0.000000 -0.268393 0.351682 -32.515412 1.002034 -0.848427 0.058334 3.665461 -10.861951 1.232484 0.000000 0.000000 0.000000 -0.268393 0.351682 -32.515412 -0.000000 0.000000 0.000000 -6.205557 13.831816 3.125408 0.000000 0.000000 0.000000
46.982830 79.292914 392.038037 0.486228 -0.162000 32.730228 -0.321444 0.399169 -32.728421 -0.000000 0.000000 0.000000 0.897123 0.957704 0.136577 0.000000 0.000000 0.000000 1.268074 -0.803585 0.197577 -1.420475 -1.933011 0.035919 2.350130 4.710516 -1.085257 10.455588 5.277643 -6.098926 0.000000 0.000000 0.000000 0.000000 0.000000 0.000000 0.753253 -0.415125 -0.177170 -0.754553 0.412758 0.182617 2.563926 2.753483 -1.332404 -0.930623 -6.171727 1.285783 0.000000 0.000000 0.000000 0.000000 0.000000 0.000000 -0.321444 0.399169 -32.728421 1.252574 -1.068830 0.074300 4.918181 -13.995469 0.722913 0.000000 0.000000 0.000000 -0.321444 0.399169 -32.728421 -0.000000 0.000000 0.000000 -7.926998 16.492389 4.225813 0.000000 0.000000 0.000000
47.015589 79.300610 392.034607 0.533151 -0.161068 32.955019 -0.359757 0.425169 -32.952934 -0.000000 0.000000 0.000000 1.107522 1.035817 0.132085 0.000000 0.000000 0.000000 1.570352 -1.138717 0.260983 -1.381073 -2.041027 -0.054990 -1.141302 5.645454 0.481816 9.642590 3.059795 -5.082928 0.000000 0.000000 0.000000 0.000000 0.000000 0.000000 0.870007 -0.480046 -0.204250 -0.871743 0.476886 0.211523 2.463789 1.418529 -0.873069 -0.873219 -3.175013 0.637615 0.000000 0.000000 0.000000 0.000000 0.000000 0.000000 -0.359757 0.425169 -32.952934 1.401017 -1.220514 0.081955 5.223277 -14.826726 0.293296 0.000000 0.000000 0.000000 -0.359757 0.425169 -32.952934 -0.000000 0.000000 0.000000 -8.851489 18.051516 4.822891 0.000000 0.000000 0.000000
47.033266 79.312078 392.031771 0.552542 -0.143515 33.170513 -0.383991 0.422436 -33.168406 -0.000000 0.000000 0.000000 1.345794 1.136190 0.129417 0.000000 0.000000 0.000000 1.841781 -1.455671 0.320984 -1.688026 -1.852163 -0.083829 -1.598667 5.348328 0.666037 8.623253 1.310161 -4.227469 0.000000 0.000000 0.000000 0.000000 0.000000 0.000000 0.966280 -0.549647 -0.230703 -0.968529 0.545674 0.239950 2.371039 -0.142521 -0.341112 -0.342854 -1.164711 -0.050251 0.000000 0.000000 0.000000 0.000000 0.000000 0.000000 -0.383991 0.422436 -33.168406 1.428772 -1.294161 0.078607 3.316118 -10.396864 0.365809 0.000000 0.000000 0.000000 -0.383991 0.422436 -33.168406 -0.000000 0.000000 0.000000 -7.006162 15.756286 3.578341 0.000000 0.000000 0.000000
47.036389 79.322727 392.025173 0.543727 -0.112933 33.351266 -0.392105 0.393254 -33.349384 -0.000000 0.000000 0.000000 1.585272 1.312699 0.143669 0.000000 0.000000 0.000000 2.099089 -1.730905 0.376730 -1.987946 -1.713160 -0.104769 -2.168384 7.105859 1.094097 7.301970 -1.287293 -3.425736 0.000000 0.000000 0.000000 0.000000 0.000000 0.000000 1.037370 -0.613073 -0.253315 -0.298554 0.006455 0.003180 1.932403 -0.413305 0.138308 -1.024003 -0.202319 -0.189761 0.000000 0.000000 0.000000 0.000000 0.000000 0.000000 -0.392105 0.393254 -33.349384 1.177939 -0.940971 0.076207 3.497473 -10.452127 -0.087236 0.000000 0.000000 0.000000 -0.392105 0.393254 -33.349384 -0.000000 0.000000 0.000000 -8.815069 18.113253 4.790495 0.000000 0.000000 0.000000
47.045731 79.330607 392.027520 0.541003 -0.090014 33.546977 -0.401153 0.373984 -33.545243 -0.000000 0.000000 0.000000 1.803234 1.568904 0.177711 0.000000 0.000000 0.000000 2.240281 -1.951584 0.414872 -2.348991 -1.576340 -0.076004 -0.950835 8.793801 0.685715 5.036102 -2.335436 -2.646876 0.000000 0.000000 0.000000 0.000000 0.000000 0.000000 1.086261 -0.670908 -0.272546 -0.278006 -0.260210 0.002597 1.846348 -0.646283 0.338250 -1.018032 0.395312 -0.370437 0.000000 0.000000 0.000000 0.000000 0.000000 0.000000 -0.401153 0.373984 -33.545243 0.832443 -0.551948 0.064526 1.667496 -5.689725 0.150114 0.000000 0.000000 0.000000 -0.401153 0.373984 -33.545243 -0.000000 0.000000 0.000000 -10.106294 18.840212 5.737496 0.000000 0.000000 0.000000
47.046959 79.336649 392.033657 0.522823 -0.066483 33.711716 -0.398012 0.345473 -33.710213 -0.000000 0.000000 0.000000 2.008219 1.871272 0.222643 0.000000 0.000000 0.000000 2.266472 -2.125544 0.435454 -2.597150 -1.380427 -0.040086 -0.050094 9.805752 0.378062 6.376786 -1.938873 -3.367528 0.000000 0.000000 0.000000 0.000000 0.000000 0.000000 1.117706 -0.727395 -0.289942 -0.315584 -0.520369 0.027051 1.964772 -0.713343 0.431492 -1.453657 1.272744 -0.431860 0.000000 0.000000 0.000000 0.000000 0.000000 0.000000 -0.398012 0.345473 -33.710213 -0.000000 0.000000 0.000000 2.848949 -7.094299 0.329588 0.000000 0.000000 0.000000 -0.398012 0.345473 -33.710213 -0.000000 0.000000 0.000000 -8.001916 14.727907 4.415314 0.000000 0.000000 0.000000
47.050219 79.340036 392.034172 0.507934 -0.030421 33.812291 -0.405100 0.307924 -33.811067 -0.000000 0.000000 0.000000 2.150266 2.190856 0.277768 0.000000 0.000000 0.000000 2.220576 -2.177761 0.435393 -2.811272 -1.496055 0.029315 -0.077684 14.774370 0.846904 9.990048 -6.629654 -4.252120 0.000000 0.000000 0.000000 0.000000 0.000000 0.000000 1.142539 -0.762720 -0.301226 -0.420837 -0.696298 0.070175 1.780269 0.256425 0.183264 -0.813183 -0.768246 -0.197581 0.000000 0.000000 0.000000 0.000000 0.000000 0.000000 -0.405100 0.307924 -33.811067 -0.000000 0.000000 0.000000 5.221878 -12.598687 0.015475 0.000000 0.000000 0.000000 -0.405100 0.307924 -33.811067 -0.000000 0.000000 0.000000 -6.957676 11.309359 3.899071 0.000000 0.000000 0.000000
